<svg xmlns="http://www.w3.org/2000/svg" width="200" height="136">
<path
  d="M200 124.054V0H0v124.054h99V134H60.02v2h79.96v-2H101v-9.946zM2.1 121.962V108.01h195.8v13.956zm0-15.952V2.097h195.8v103.914z" />
<path
  d="M99.999 69.996a16 16 0 1111.314-4.689 15.892 15.892 0 01-11.314 4.689zm0-30a14 14 0 109.9 4.1 13.906 13.906 0 00-9.9-4.1zM100.999 80.004h-2v-6.033a20.72 20.72 0 002.008 0v6.033zm16.674-6.914l-4.262-4.26c.5-.451.973-.926 1.413-1.412l4.265 4.266-1.415 1.406zm-35.353 0l-1.415-1.406 4.261-4.264a19.778 19.778 0 001.414 1.412l-4.259 4.258zm43.679-18.092h-6.026a20.22 20.22 0 00.001-2h6.025v2zm-45.977 0h-6.023v-2h6.02a20.662 20.662 0 000 2zm34.809-14.416c-.451-.5-.927-.973-1.414-1.414l4.261-4.262 1.415 1.416-4.26 4.26zm-29.665 0l-4.257-4.256 1.415-1.416 4.258 4.258c-.5.451-.974.926-1.415 1.414zm15.836-6.561a21.095 21.095 0 00-2.007 0v-6.023h2v6.02z" />
</svg>
