<svg xmlns="http://www.w3.org/2000/svg" width="90" height="54">
  <path d="M89.657 26.401a50.985 50.985 0 00-89.312 0L0 27.015l.344.612A51.45 51.45 0 0044.996 54a51.455 51.455 0 0044.655-26.375l.344-.614zm-2.088.6C79.36 41.932 62.28 51.949 44.998 51.949S10.646 41.94 2.43 27.012C10.642 12.08 27.72 2.064 45 2.064s34.358 10.014 42.57 24.942z"/>
  <path d="M45 46.001a19 19 0 1119-19 19 19 0 01-19 19z"/>
  <circle cx="17" cy="17" r="17" transform="translate(28 10)" fill="#3c8a2e"/>
  <g transform="translate(-86 -1114)">
    <path d="M122.379 1143.999s3.621 4.168 8.6 4.168 8.521-4.168 8.521-4.168l1.5 1.058a12.663 12.663 0 01-10.02 4.942 12.543 12.543 0 01-9.98-4.942z"/>
    <circle cx="2" cy="2" r="2" transform="translate(124 1135)"/>
    <circle cx="2" cy="2" r="2" transform="translate(134 1135)"/>
  </g>
</svg>
