<svg xmlns="http://www.w3.org/2000/svg" width="160" height="106" viewBox="0 0 160 106">
  <path d="M90.8 26.246s2.771-10.062 6.18-13.833 9.866-10.113 18.006-11 16.148.314 20.644 3.255 10.18 7.727 11.821 14.391.336 14.821-1.62 19.825-5.587 10.675-7.217 12.014a11.8 11.8 0 01-2.984 1.848l-5.767-13.861-3.716-9.515-5.863 7.776-1.175-1.646-.943-7.337-2.78-7.659-1.484-1.445-9.726 3.905z" fill="none"/>
  <path d="M156.442 73.317a17.89 17.89 0 00-9.767-8.02c-.785-1.161-6.8-10.209-7.015-14.4 0-.1 0-.2-.008-.293v-.064c6.426-6.657 9.354-17.405 9.354-24.614a24.7 24.7 0 00-8.326-18.839A29.911 29.911 0 00120.773.015c-7.112 0-13.355 1.845-18.074 5.352l-1.818 1.5a35.6 35.6 0 00-9.789 14.259l-2.258 6.1h1.545a19.3 19.3 0 002.67-.241 301.485 301.485 0 00-.525 4.685l-.044.41a1.176 1.176 0 01-.115.407 18.308 18.308 0 01-3.483 4.8l-1.358 1.333-.078.089a1.955 1.955 0 00.36 2.744 1.841 1.841 0 00.311.2l3.4 1.715-.045.751c-.48 8.64 4.05 15.992 5.754 17.693 3.964 3.95 11.346 2.9 15.358 2.324.673-.1 1.269-.18 1.648-.208.237.279 1.014 1.455 2.388 5.912a36.576 36.576 0 00-5.174 5.85c-1.975.14-6.358.472-8.83.831a98.955 98.955 0 00-27.266 7.722c-3.563-.922-48.5-12.556-54.053-14.375-1.013-.331-3.877-1.286-8.908-8.993V23.908a2.979 2.979 0 00-2.983-2.975h-.994a2.979 2.979 0 00-2.983 2.975v30.951a4.2 4.2 0 00-2.187 1.062 4.515 4.515 0 00-1.438 4.252 7.484 7.484 0 00.7 2.231l.566 1.035a5.454 5.454 0 00-2.964 4.4c-.185 3.152-.573 9.712 3.312 11.99 2.156 1.263 6.7 2.471 11.52 3.75 2.719.722 5.8 1.54 8.1 2.311 2.26.758 7.1 3.313 12.7 6.271 8.937 4.718 20.06 10.59 26.816 12.367A47.1 47.1 0 0074.242 106h.548a47.184 47.184 0 009.152-.892l17.348-.9a1.062 1.062 0 00.65-1.832 1.03 1.03 0 00-.772-.288l-17.429.9-.125.018a48.257 48.257 0 01-20.52-.538c-6.513-1.714-17.518-7.523-26.361-12.191-5.69-3-10.6-5.6-13.023-6.407-2.369-.794-5.349-1.585-8.3-2.369-4.438-1.18-9.027-2.4-10.917-3.51-2.761-1.62-2.427-7.3-2.267-10.023a3.27 3.27 0 011.785-2.632l5.646 10.127 1.862-1.024L4.38 61.396c-.013-.026-1.286-2.544.279-3.892a2.149 2.149 0 011.585-.6 2.96 2.96 0 01.636.174l1.74 1.735c1.825 3.1 6.654 11.292 12.008 13.046 6 1.962 54.081 14.385 54.566 14.51l.392.1.367-.188c1.1-.545 11.181-5.4 26.965-7.685 2.9-.421 8.987-.843 9.332-.86a1.052 1.052 0 00.935-.831 33.683 33.683 0 014.112-4.8l.042.149a183.417 183.417 0 012.1 8.312l.306 1.4 6.2-3.447 19.7-11.318c7.644 2.373 12.2 9.986 12.2 20.414v15.24a1.068 1.068 0 001.069 1.072 1.072 1.072 0 001.072-1.07V87.64a27.865 27.865 0 00-3.544-14.323zM7.412 23.907a1 1 0 01.994-.992H9.4a.994.994 0 01.994.992V57.65a12.366 12.366 0 00-.662-1.06 5.055 5.055 0 00-1.961-1.415l-.36-.358zm84.535 1.056l1.154-3.116a33.466 33.466 0 019.2-13.4l.41-.363c.237-.2.482-.406.754-.62l.085-.066c4.362-3.432 10.314-5.245 17.214-5.245 15.115 0 26.086 9.992 26.086 23.757 0 8.222-3.964 19.623-10.627 24.841a216.867 216.867 0 01-9.308-21.936l-.658-1.918-6.014 8.045c-.77-4.621-2.58-13.448-5.552-16.417l-.507-.5-.654.265c-.142.06-14.454 5.808-21.582 6.674zm32.939 51.712l-3.676 2.044c-.413-1.742-1.115-4.6-1.914-7.416a63.293 63.293 0 00-2.018-6.136c-.83-2.046-1.631-3.408-2.856-3.408a18.82 18.82 0 00-2.181.243c-3.6.514-10.288 1.47-13.495-1.725-1.462-1.461-5.563-8.25-5.129-16.06l.082-1.406a1.059 1.059 0 00-.581-1.053l-3.8-1.9 1.067-1.058a20.411 20.411 0 003.892-5.367 2.654 2.654 0 00.23-.663 1.175 1.175 0 00.074-.285c.2-1.925.429-3.921.676-5.943a145.731 145.731 0 0018.368-5.979c2.1 2.783 3.793 10 4.7 15.964a1.616 1.616 0 001.835 1.34 1.6 1.6 0 001.04-.624l3.919-5.237a7.234 7.234 0 011.042 3.865c0 3.189-1.762 5.783-3.928 5.783a1.069 1.069 0 100 2.138c2.83 0 5.183-2.467 5.867-5.881a163.162 163.162 0 006.836 14.936l.567 1.011.966-.647c.419-.283.829-.585 1.225-.9.922 4.355 4.933 10.76 6.56 13.232z"/>
  <g transform="translate(2)">
    <rect width="6" height="2" transform="translate(28 48.086)"/>
    <rect width="6" height="2" transform="translate(38 48.086)"/>
    <rect width="6" height="2" transform="translate(48 48.086)"/>
    <rect width="6" height="2" transform="translate(58 48.086)"/>
    <rect width="6" height="2" transform="translate(68 48.086)"/>
  </g>
  <path d="M26 49l6-6v12z"/>
  <path d="M80 49l-6 6V43z"/>
</svg>
