<svg xmlns="http://www.w3.org/2000/svg" width="160" height="104.825" viewBox="0 0 160 104.825">
  <path d="M90.8 26.246s2.771-10.062 6.18-13.833 9.866-10.113 18.006-11 16.148.314 20.644 3.255 10.18 7.727 11.821 14.391.336 14.821-1.62 19.825-5.587 10.675-7.217 12.014a11.8 11.8 0 01-2.984 1.848l-5.767-13.861-3.716-9.515-5.863 7.776-1.175-1.646-.943-7.337-2.78-7.659-1.484-1.445-9.726 3.905z" fill="none"/>
  <path d="M19 92.112H7v-80h12zm-10-2h8v-76H9z"/>
  <rect width="2" height="10" transform="translate(12 92.112)"/>
  <rect width="26" height="2" transform="translate(0 102.112)"/>
  <path d="M156.428 73.944a17.992 17.992 0 00-9.517-7.981.966.966 0 01-.482-.371c-1.262-1.9-6.678-10.267-6.877-14.264 0-.1 0-.2-.008-.3v-.064c6.462-6.715 9.407-17.554 9.407-24.824a24.939 24.939 0 00-8.373-19 30.057 30.057 0 00-20.02-7.132c-7.152 0-13.431 1.861-18.177 5.4l-1.826 1.51a35.9 35.9 0 00-9.846 14.381l-2.281 6.151h1.555c.483-.01.967-.038 1.449-.084a1 1 0 011.086 1.111 313.014 313.014 0 00-.379 3.455l-.044.413a1.166 1.166 0 01-.117.41 18.419 18.419 0 01-3.5 4.841l-1.367 1.347-.075.087a1.973 1.973 0 00.36 2.767 1.9 1.9 0 00.314.2l3.417 1.73-.045.757c-.482 8.715 4.073 16.129 5.787 17.844 3.985 3.984 11.41 2.921 15.444 2.344.373-.053.722-.1 1.024-.141a1 1 0 011.01.517 28.922 28.922 0 011.839 4.774 1 1 0 01-.271 1.028 36.877 36.877 0 00-5.669 6.808l-.574.888h.005c-6.479 9.92-7.548 21.31-7.724 24.786a1 1 0 001 1.046 1 1 0 001.007-.939c.2-3.453 1.349-15.469 8.493-25.227l.3-.395a33.93 33.93 0 014.308-5.084l.042.15c1.173 4.188 2.1 8.343 2.112 8.383l.307 1.415 6.236-3.476 19.419-11.186a1.017 1.017 0 01.832-.086c7.423 2.543 11.831 10.129 11.831 20.445v15.37a1.071 1.071 0 00.314.764 1.04 1.04 0 00.765.317 1.075 1.075 0 001.077-1.079V88.389a28.167 28.167 0 00-3.568-14.445zm-35.432 5.449a178.108 178.108 0 00-1.925-7.479 63.616 63.616 0 00-2.029-6.188c-.835-2.063-1.64-3.437-2.872-3.437a18.853 18.853 0 00-2.193.245c-3.615.518-10.345 1.483-13.571-1.74-1.47-1.472-5.594-8.319-5.158-16.2l.082-1.418a1.069 1.069 0 00-.584-1.062l-3.82-1.92 1.073-1.067a20.556 20.556 0 003.914-5.413 2.708 2.708 0 00.233-.676 1.214 1.214 0 00.073-.28c.2-1.941.43-3.954.678-5.994a146.175 146.175 0 0018.473-6.03c2.107 2.807 3.815 10.088 4.727 16.1a1.616 1.616 0 002.891.722l3.941-5.282a7.312 7.312 0 011.048 3.9c0 3.216-1.772 5.832-3.95 5.832a1.078 1.078 0 100 2.156c2.847 0 5.213-2.488 5.9-5.93a164.9 164.9 0 006.875 15.063l.57 1.02.971-.652c.421-.285.834-.59 1.232-.91.928 4.4 4.961 10.853 6.6 13.345l-19.477 11.231zm15.1-28.209a219.117 219.117 0 01-9.36-22.123l-.664-1.934-6.047 8.114c-.774-4.66-2.6-13.563-5.583-16.557l-.51-.5-.658.267c-.149.06-14.542 5.854-21.71 6.727l1.161-3.143a33.747 33.747 0 019.257-13.515l.413-.366c.238-.2.486-.409.757-.625l.085-.067c4.388-3.461 10.373-5.29 17.312-5.29 15.2 0 26.234 10.077 26.234 23.96-.001 8.291-3.988 19.79-10.688 25.052zm-42.329-18.47z"/>
  <g transform="translate(2 2)">
    <rect width="6" height="2" transform="translate(28 48.086)"/>
    <rect width="6" height="2" transform="translate(38 48.086)"/>
    <rect width="6" height="2" transform="translate(48 48.086)"/>
    <rect width="6" height="2" transform="translate(58 48.086)"/>
    <rect width="6" height="2" transform="translate(68 48.086)"/>
  </g>
  <path d="M26 51l6-6v12z"/>
  <path d="M80 51l-6 6V45z"/>
</svg>
