<svg xmlns="http://www.w3.org/2000/svg" width="199.999" height="59.84" viewBox="0 0 199.999 59.84"><defs><style>.a{fill:#d2e7f6;opacity:0;}.b{fill:none;}</style></defs><g transform="translate(-681 -314.447)"><path class="a" d="M-16213.787-23751.582l4.482-.789,2.952-.822,4.254-2.928,7.612-2.385,6.372-.586,5.989.586,6.357,1.887,5.287,2.961,3.425,3.225.97,2.924.53,7.785v4.125l-1.5,5.3-2.642,4.678-4.208,4.049-5.075,2.906-7.405,1.693-5.271-.5-5.219-1.672-4.715-2.955-3.754-4.27-2.384-4.842-1.271-5.93-.307-6.176-1.164-2.295-2.378-1.229h-.94Z" transform="translate(16896 24082)"/><path class="a" d="M-16165.555-23751.582l-4.483-.789-2.952-.822-4.253-2.928-7.612-2.385-6.372-.586-5.988.586-6.357,1.887-5.287,2.961-3.425,3.225-.97,2.924-.53,7.785v4.125l1.5,5.3,2.642,4.678,4.208,4.049,5.074,2.906,7.405,1.693,5.271-.5,5.219-1.672,4.714-2.955,3.755-4.27,2.384-4.842,1.27-5.93.307-6.176,1.164-2.295,2.379-1.229h.94Z" transform="translate(16957.23 24082)"/><path d="M542.025,253.556a.826.826,0,0,0-.572-.253,29.225,29.225,0,0,1-6.986-1.255c-4.1-3.213-12.514-5.916-18.442-5.916-8.657,0-19.211,3.154-23.283,10.22-.011.021-.017.053-.027.075a21.582,21.582,0,0,0-13,.015.7.7,0,0,0-.033-.084c-4.053-7.032-14.587-10.178-23.23-10.178-5.922,0-14.326,2.7-18.418,5.911a29.258,29.258,0,0,1-6.989,1.259.788.788,0,0,0-.78.789v5.531a.779.779,0,0,0,.235.56.766.766,0,0,0,.579.229,4.73,4.73,0,0,1,3.059,1.007,2.759,2.759,0,0,1,.792,2c.017,1.255.122,2.446.217,3.515l.1,1.2c.922,12.889,10.269,21.892,22.727,21.894l.271,0h.21a22.492,22.492,0,0,0,15.839-6.629,21.857,21.857,0,0,0,6.445-15.731,80.286,80.286,0,0,0-.663-9.157,31.954,31.954,0,0,1,6.137-.965,33.427,33.427,0,0,1,6.148.939,80.273,80.273,0,0,0-.666,9.187,21.905,21.905,0,0,0,6.46,15.764,22.535,22.535,0,0,0,15.872,6.644h.212l.274,0c12.485,0,21.851-9.023,22.774-21.939l.1-1.221c.093-1.051.2-2.243.215-3.518a2.688,2.688,0,0,1,.736-1.912,4.669,4.669,0,0,1,3.058-1.032.886.886,0,0,0,.617-.239.83.83,0,0,0,.253-.6v-5.522A.82.82,0,0,0,542.025,253.556Zm-1.945,4.852a6.082,6.082,0,0,0-3.221,1.57,4.855,4.855,0,0,0-1.433,3.475c-.019,1.1-.112,2.18-.194,3.135l-.022.253c-.038.431-.073.843-.1,1.225-.9,11.722-9.376,19.908-20.61,19.908h-.088a20.446,20.446,0,0,1-20.549-20.242,79.53,79.53,0,0,1,.847-10.066l.121-.56c3.845-6.1,13.4-8.828,21.184-8.828,5.622,0,13.561,2.565,17.33,5.594a.828.828,0,0,0,.277.152,33.95,33.95,0,0,0,6.455,1.343Zm-61.417,9.39a20.483,20.483,0,0,1-20.6,20.225h-.088c-11.259,0-19.753-8.2-20.657-19.95-.027-.386-.061-.8-.1-1.227l-.023-.267c-.082-.951-.175-2.031-.193-3.112A4.82,4.82,0,0,0,435.573,260a6.018,6.018,0,0,0-3.226-1.554l0-3.126a33.8,33.8,0,0,0,6.492-1.347.728.728,0,0,0,.251-.136c3.783-3.042,11.736-5.611,17.369-5.611,7.8,0,17.379,2.74,21.231,8.858l.118.542A79.566,79.566,0,0,1,478.662,267.8Z" transform="translate(250.738 75.869)"/></g><g transform="translate(-681 -314.447)"><ellipse class="a" cx="19.5" cy="19.501" rx="19.5" ry="19.501" transform="translate(834.5 327.469)"/><path class="b" d="M-16025.607-23759.816l8.551,14.533,1.109,3.838-1.109,4.93-2.937,3.24-4.98,1.809-4.612-.734-3.98-2.959-1.807-4.635.649-4.943,2.692-4.494Z" transform="translate(16896 24082)"/><g transform="translate(250.742 76.369)"><path d="M586.416,271.721v.5h2.161l0-.694a15.29,15.29,0,0,1,15.272-15.205h.069l.5,0V254.17l-.5,0A17.568,17.568,0,0,0,586.416,271.721Z" transform="translate(0 -0.503)"/><path d="M628.829,259.415,619.61,243.63l-5.425,9.293a21.2,21.2,0,0,0-10.817-2.99h-.033a21.055,21.055,0,0,0-14.88,6.084,20.688,20.688,0,0,0-.046,29.484A21.06,21.06,0,0,0,603.3,291.63h0a21.123,21.123,0,0,0,20.774-17.424c.286-.131.576-.257.849-.413a10.47,10.47,0,0,0,4.961-6.39A10.353,10.353,0,0,0,628.829,259.415Zm-15.058,11.5a8.491,8.491,0,0,1-1.461-10.742l7.3-12.469,7.318,12.481a8.489,8.489,0,0,1-1.485,10.737C622.5,273.738,616.619,273.743,613.77,270.913Zm-3.376-11.5a10.432,10.432,0,0,0,1.693,12.706,10.627,10.627,0,0,0,7.519,3.08h0a10.714,10.714,0,0,0,2.247-.259,19.048,19.048,0,0,1-18.435,14.6h-.061a18.955,18.955,0,0,1-13.375-5.457,18.543,18.543,0,0,1-5.6-13.255A18.9,18.9,0,0,1,603.307,252h.091a18.908,18.908,0,0,1,9.748,2.706Z"/></g></g><rect width="65" height="2.2" transform="translate(117.074 58.91) rotate(-65)"/></svg>